<mxfile host="app.diagrams.net" modified="2023-02-17T04:45:42.594Z" agent="5.0 (Windows NT 10.0; Win64; x64) AppleWebKit/537.36 (KHTML, like Gecko) Chrome/110.0.0.0 Safari/537.36 Edg/110.0.1587.46" etag="JQu7sFGmCYqhSvTcE417" version="20.8.20" type="github">
  <diagram name="第 1 页" id="lsXpEZvpQ63tm9H0TC04">
    <mxGraphModel dx="1387" dy="835" grid="1" gridSize="10" guides="1" tooltips="1" connect="1" arrows="1" fold="1" page="1" pageScale="1" pageWidth="3300" pageHeight="4681" math="0" shadow="0">
      <root>
        <mxCell id="0" />
        <mxCell id="1" parent="0" />
        <mxCell id="LUXVVamCTam6qK-zAvc4-7" value="" style="ellipse;whiteSpace=wrap;html=1;" vertex="1" parent="1">
          <mxGeometry x="300" y="120" width="160" height="110" as="geometry" />
        </mxCell>
        <mxCell id="LUXVVamCTam6qK-zAvc4-8" value="" style="ellipse;whiteSpace=wrap;html=1;" vertex="1" parent="1">
          <mxGeometry x="300" y="280" width="160" height="110" as="geometry" />
        </mxCell>
        <mxCell id="LUXVVamCTam6qK-zAvc4-9" value="" style="ellipse;whiteSpace=wrap;html=1;" vertex="1" parent="1">
          <mxGeometry x="300" y="440" width="160" height="110" as="geometry" />
        </mxCell>
        <mxCell id="LUXVVamCTam6qK-zAvc4-10" value="" style="rounded=1;whiteSpace=wrap;html=1;" vertex="1" parent="1">
          <mxGeometry x="630" y="77.5" width="290" height="565" as="geometry" />
        </mxCell>
        <mxCell id="LUXVVamCTam6qK-zAvc4-11" value="" style="shape=cylinder3;whiteSpace=wrap;html=1;boundedLbl=1;backgroundOutline=1;size=15;" vertex="1" parent="1">
          <mxGeometry x="1020" y="90" width="230" height="145" as="geometry" />
        </mxCell>
        <mxCell id="LUXVVamCTam6qK-zAvc4-12" value="" style="shape=step;perimeter=stepPerimeter;whiteSpace=wrap;html=1;fixedSize=1;" vertex="1" parent="1">
          <mxGeometry x="980" y="340" width="330" height="220" as="geometry" />
        </mxCell>
        <mxCell id="LUXVVamCTam6qK-zAvc4-13" value="api_interface" style="text;html=1;strokeColor=none;fillColor=none;align=center;verticalAlign=middle;whiteSpace=wrap;rounded=0;" vertex="1" parent="1">
          <mxGeometry x="350" y="130" width="60" height="30" as="geometry" />
        </mxCell>
        <mxCell id="LUXVVamCTam6qK-zAvc4-14" value="api_interface2" style="text;html=1;strokeColor=none;fillColor=none;align=center;verticalAlign=middle;whiteSpace=wrap;rounded=0;" vertex="1" parent="1">
          <mxGeometry x="350" y="290" width="60" height="30" as="geometry" />
        </mxCell>
        <mxCell id="LUXVVamCTam6qK-zAvc4-15" value="api_interface3" style="text;html=1;strokeColor=none;fillColor=none;align=center;verticalAlign=middle;whiteSpace=wrap;rounded=0;" vertex="1" parent="1">
          <mxGeometry x="350" y="450" width="60" height="30" as="geometry" />
        </mxCell>
        <mxCell id="LUXVVamCTam6qK-zAvc4-16" value="@GET（URL）&lt;br&gt;@Filed" style="text;html=1;strokeColor=none;fillColor=none;align=center;verticalAlign=middle;whiteSpace=wrap;rounded=0;" vertex="1" parent="1">
          <mxGeometry x="335" y="170" width="90" height="30" as="geometry" />
        </mxCell>
        <mxCell id="LUXVVamCTam6qK-zAvc4-18" value="@POST(URL)&lt;br&gt;@Filed" style="text;html=1;strokeColor=none;fillColor=none;align=center;verticalAlign=middle;whiteSpace=wrap;rounded=0;" vertex="1" parent="1">
          <mxGeometry x="350" y="490" width="60" height="30" as="geometry" />
        </mxCell>
        <mxCell id="LUXVVamCTam6qK-zAvc4-19" value="" style="rounded=1;whiteSpace=wrap;html=1;" vertex="1" parent="1">
          <mxGeometry x="687.5" y="170" width="175" height="100" as="geometry" />
        </mxCell>
        <mxCell id="LUXVVamCTam6qK-zAvc4-20" value="&lt;font style=&quot;font-size: 25px;&quot;&gt;Retrofit&lt;/font&gt;" style="text;html=1;strokeColor=none;fillColor=none;align=center;verticalAlign=middle;whiteSpace=wrap;rounded=0;" vertex="1" parent="1">
          <mxGeometry x="745" y="100" width="60" height="30" as="geometry" />
        </mxCell>
        <mxCell id="LUXVVamCTam6qK-zAvc4-21" value="User" style="shape=umlActor;verticalLabelPosition=bottom;verticalAlign=top;html=1;outlineConnect=0;fontSize=25;" vertex="1" parent="1">
          <mxGeometry x="110" y="305" width="30" height="60" as="geometry" />
        </mxCell>
        <mxCell id="LUXVVamCTam6qK-zAvc4-22" value="@GET（URL）&lt;br&gt;@Filed" style="text;html=1;strokeColor=none;fillColor=none;align=center;verticalAlign=middle;whiteSpace=wrap;rounded=0;" vertex="1" parent="1">
          <mxGeometry x="340" y="335" width="90" height="30" as="geometry" />
        </mxCell>
      </root>
    </mxGraphModel>
  </diagram>
</mxfile>
